name kv08_filtered_grf.mot
datacolumns 37
datarows 11
range 0.589500 0.594500
endheader
time	1_ground_force_vx	1_ground_force_vy	1_ground_force_vz	1_ground_force_px	1_ground_force_py	1_ground_force_pz	1_ground_torque_x	1_ground_torque_y	1_ground_torque_z	2_ground_force_vx	2_ground_force_vy	2_ground_force_vz	2_ground_force_px	2_ground_force_py	2_ground_force_pz	2_ground_torque_x	2_ground_torque_y	2_ground_torque_z	3_ground_force_vx	3_ground_force_vy	3_ground_force_vz	3_ground_force_px	3_ground_force_py	3_ground_force_pz	3_ground_torque_x	3_ground_torque_y	3_ground_torque_z	4_ground_force_vx	4_ground_force_vy	4_ground_force_vz	4_ground_force_px	4_ground_force_py	4_ground_force_pz	4_ground_torque_x	4_ground_torque_y	4_ground_torque_z
            0.589500	            0.000000	           -0.000000	           -0.000000	            0.149158	            0.000000	            0.197594	           -0.000000	           -0.000000	            0.000000	            0.000000	           -0.000000	           -0.000000	           -0.158501	            0.000000	            0.233051	           -0.000000	            0.000000	           -0.000000	           16.680965	            6.551043	            3.000904	            0.379439	            1.022205	            1.091649	           -0.201925	           -0.079301	           -0.036326	          -10.667464	           25.177961	           12.838854	           -0.419523	            1.022060	            1.091503	           -0.169679	            0.400487	            0.204218
            0.590000	            0.000000	           -0.000000	           -0.000000	            0.149158	            0.000000	            0.197594	           -0.000000	           -0.000000	            0.000000	            0.000000	           -0.000000	           -0.000000	           -0.158501	            0.000000	            0.233051	           -0.000000	            0.000000	           -0.000000	           16.629392	            6.178878	            2.743131	            0.379429	            1.022225	            1.091673	           -0.185904	           -0.069075	           -0.030666	          -10.680304	           24.356697	           12.480950	           -0.419526	            1.022060	            1.091504	           -0.166875	            0.380563	            0.195009
            0.590500	            0.000000	           -0.000000	           -0.000000	            0.149158	            0.000000	            0.197594	           -0.000000	           -0.000000	            0.000000	            0.000000	           -0.000000	           -0.000000	           -0.158501	            0.000000	            0.233051	           -0.000000	            0.000000	           -0.000000	           16.578411	            5.819149	            2.492623	            0.379425	            1.022243	            1.091695	           -0.170946	           -0.060003	           -0.025702	          -10.692955	           23.545146	           12.118860	           -0.419528	            1.022059	            1.091504	           -0.163971	            0.361054	            0.185837
            0.591000	            0.000000	           -0.000000	           -0.000000	            0.149158	            0.000000	            0.197594	           -0.000000	           -0.000000	            0.000000	            0.000000	           -0.000000	           -0.000000	           -0.158501	            0.000000	            0.233051	           -0.000000	            0.000000	           -0.000000	           16.528225	            5.472013	            2.249650	            0.379421	            1.022262	            1.091718	           -0.157096	           -0.052010	           -0.021382	          -10.705637	           22.742524	           11.753407	           -0.419531	            1.022059	            1.091505	           -0.160954	            0.341922	            0.176707
            0.591500	            0.000000	           -0.000000	           -0.000000	            0.149158	            0.000000	            0.197594	           -0.000000	           -0.000000	            0.000000	            0.000000	           -0.000000	           -0.000000	           -0.158501	            0.000000	            0.233051	           -0.000000	            0.000000	           -0.000000	           16.479028	            5.137562	            2.014675	            0.379417	            1.022280	            1.091740	           -0.144386	           -0.045014	           -0.017652	          -10.718549	           21.948213	           11.385267	           -0.419533	            1.022058	            1.091506	           -0.157806	            0.323137	            0.167622
            0.592000	            0.000000	           -0.000000	           -0.000000	            0.149158	            0.000000	            0.197594	           -0.000000	           -0.000000	            0.000000	            0.000000	           -0.000000	           -0.000000	           -0.158501	            0.000000	            0.233051	           -0.000000	            0.000000	           -0.000000	           16.431016	            4.815893	            1.788139	            0.379413	            1.022298	            1.091762	           -0.132828	           -0.038932	           -0.014455	          -10.731867	           21.161698	           11.015112	           -0.419536	            1.022057	            1.091506	           -0.154509	            0.304670	            0.158587
            0.592500	            0.000000	           -0.000000	           -0.000000	            0.149158	            0.000000	            0.197594	           -0.000000	           -0.000000	            0.000000	            0.000000	           -0.000000	           -0.000000	           -0.158501	            0.000000	            0.233051	           -0.000000	            0.000000	           -0.000000	           16.384380	            4.507108	            1.570458	            0.379409	            1.022317	            1.091785	           -0.122418	           -0.033675	           -0.011734	          -10.745740	           20.382567	           10.643605	           -0.419539	            1.022057	            1.091507	           -0.151042	            0.286497	            0.149606
            0.593000	            0.000000	           -0.000000	           -0.000000	            0.149158	            0.000000	            0.197594	           -0.000000	           -0.000000	            0.000000	            0.000000	           -0.000000	           -0.000000	           -0.158501	            0.000000	            0.233051	           -0.000000	            0.000000	           -0.000000	           16.339277	            4.211253	            1.362513	            0.379410	            1.022332	            1.091802	           -0.113135	           -0.029159	           -0.009434	          -10.760340	           19.610516	           10.271361	           -0.419541	            1.022056	            1.091507	           -0.147383	            0.268602	            0.140685
            0.593500	            0.000000	           -0.000000	           -0.000000	            0.149158	            0.000000	            0.197594	           -0.000000	           -0.000000	            0.000000	            0.000000	           -0.000000	           -0.000000	           -0.158501	            0.000000	            0.233051	           -0.000000	            0.000000	           -0.000000	           16.295917	            3.928490	            1.164138	            0.379411	            1.022347	            1.091820	           -0.104941	           -0.025298	           -0.007497	          -10.775707	           18.845369	            9.899057	           -0.419544	            1.022054	            1.091508	           -0.143505	            0.250972	            0.131830
            0.594000	            0.000000	           -0.000000	           -0.000000	            0.149158	            0.000000	            0.197594	           -0.000000	           -0.000000	            0.000000	            0.000000	            0.000000	           -0.000000	           -0.158501	            0.000000	            0.233051	            0.000000	           -0.000000	            0.000000	           16.254463	            3.658902	            0.975643	            0.379412	            1.022362	            1.091838	           -0.097788	           -0.022012	           -0.005870	          -10.791909	           18.087059	            9.527320	           -0.419546	            1.022053	            1.091508	           -0.139383	            0.233603	            0.123050
            0.594500	            0.000000	           -0.000000	           -0.000000	            0.149158	            0.000000	            0.197594	           -0.000000	           -0.000000	            0.000000	            0.000000	            0.000000	           -0.000000	           -0.158501	            0.000000	            0.233051	            0.000000	           -0.000000	            0.000000	           16.215062	            3.402558	            0.797295	            0.379413	            1.022377	            1.091856	           -0.091612	           -0.019224	           -0.004505	          -10.808979	           17.335638	            9.156759	           -0.419548	            1.022052	            1.091509	           -0.134987	            0.216495	            0.114354
